<!-- Generator: Adobe Illustrator 27.9.0, SVG Export Plug-In . SVG Version: 6.00 Build 0)  -->
<svg version="1.1" xmlns="http://www.w3.org/2000/svg" xmlns:xlink="http://www.w3.org/1999/xlink" x="0px" y="0px" viewBox="0 0 720 720" style="enable-background:new 0 0 720 720;" xml:space="preserve" width="720" height="720">
<style type="text/css">
	.st0{fill:#142449;}
</style>
<g id="Layer_2">
</g>
<g id="Layer_1">
	<g>
		<path class="st0" d="M505.7,223.9c20.9-12.7,39.8-17.4,39.8-17.4c-6.8-0.6-12.9-0.5-18.5,0.1c-6-15.6-19.4-25.2-31.9-22.1    c-14,3.5-21.5,21.6-16.8,40.5c0.8,3.3,2,6.4,3.4,9.3c-5.1,8.2-6.6,15.1-6.6,15.1C484.4,238.6,495.3,230.3,505.7,223.9z     M496.5,192.3c7.8-1.9,16.5,4.8,21.7,15.9c-1.5,0.4-3,0.8-4.4,1.2c-3.7-6-9-9.4-13.8-8.2c-6.3,1.6-9.7,10.5-8.1,20.7    c-2,1.8-3.8,3.7-5.4,5.6c-0.2-0.6-0.3-1.3-0.5-2.1C482.2,209.4,486.8,194.7,496.5,192.3z" />
		<path class="st0" d="M426.7,234.6c-3.2-0.7-6.7,2.9-7.8,8c-1.1,5.1,0.7,9.8,3.9,10.5c3.2,0.7,6.7-2.9,7.8-8    C431.6,240,429.9,235.3,426.7,234.6z" />
		<path class="st0" d="M561.8,199c7.5,1,14-2,14.6-6.7c0.6-4.7-4.9-9.3-12.4-10.3c-7.5-1-14,2-14.6,6.7    C548.8,193.4,554.4,198.1,561.8,199z" />
		<path class="st0" d="M509,339.3c-1.3,0.4-2.6,0.8-3.7,1.1c10.8,11,27.5,36.8,21.2,88.1c1.2-0.6,2.4-1.3,3.6-2    c1.5-0.9,3-1.8,4.4-2.7c4.5-46.8-9.7-72.8-21.1-85.8C511.9,338.5,510.4,338.9,509,339.3z" />
		<path class="st0" d="M378.1,468.9c0.1,4.1,2.2,7.4,4.5,7.3c2.4-0.1,4.2-3.5,4-7.6c-0.1-4.1-2.2-7.4-4.5-7.3    C379.8,461.4,378,464.8,378.1,468.9z" />
		<path class="st0" d="M561.9,344c0,0-0.2-0.5-0.8-0.9c-0.4-0.3-1.1-0.4-1.1-0.4c-0.2-0.9-0.6-1-0.9-1.2c-0.8-0.5-3-0.4-4.2-1.7    c-1.3-1.5-3-2.2-4.3-0.4c0,0-0.9,1.1,0.3,3.1l-0.3,0c-0.5,0-1.1,0-1.6,0.1c-3.4,0.6-3.2,3.2-0.9,4.6c0.5,0.3,1.7,0.8,2.3,1    c0.6,1.4,1.7,1.8,2.4,2.2c0.6,1.1,2,1.6,1.5,2.4c-0.7-1.4-3.8-4.6-4.3-2c-2.2-2.5-4.5-4.9-6.7-7.3c0,0.8-0.1,1.5-0.2,2.1    c-0.2,0.8-0.6,1.5-1.5,1.8c-0.9,0.3-13.4,3.4-16.5,4.2c1.4,1.5,2.8,3,4.2,4.5l10.9,0.4l-8.8,1.8c1.5,1.7,3.1,3.3,4.6,5l26.3,1.1    l-2.5-2.8c0.5,0.1,1,0,1.2-0.2c0.5-0.4,0.7-0.9,0.8-1.5C567.8,356.7,568.9,348.9,561.9,344z" />
		<path class="st0" d="M423.7,215.9c-1.1,5.1,0.7,9.8,3.9,10.4c3.2,0.7,6.7-2.9,7.8-8c1.1-5.1-0.7-9.8-3.9-10.5    C428.3,207.2,424.8,210.8,423.7,215.9z" />
		<path class="st0" d="M443.8,239.8c2.4,0.5,5-2.2,5.8-5.9c0.8-3.8-0.5-7.3-2.9-7.8c-2.4-0.5-5,2.2-5.8,5.9    C440.1,235.8,441.4,239.3,443.8,239.8z" />
		<path class="st0" d="M310,355.4c0.3-0.4,0.5-0.9,0.7-1.4c1.6-5.1-5.6-12-16-15.3c-10.5-3.3-20.3-1.8-21.9,3.3    c-0.1,0.3-0.2,0.6-0.2,1c4.6-1.5,12.1-1.2,19.9,1.3C300.8,346.9,307.4,351.3,310,355.4z" />
		<path class="st0" d="M344.3,624.8l-8.7,1.5c-0.9,0.2-1.6,0.5-2.1,0.9c-0.5,0.5-1,1.3-1.4,2.4c-0.1-0.9-0.3-1.6-0.8-1.9    c-0.4-0.4-1.4-0.4-2.9-0.2l-11.1,1.9c-0.9,0.2-1.6,0.5-2.1,0.9c-0.5,0.5-0.9,1.2-1.3,2.4l0.2-2.7l-7.8,1.3l-3,0.5    c0.2,0.6,0.3,1.5,0.2,2.4c0,0.6-0.1,1-0.1,1.4c-0.1,0.4-0.2,1.4-0.5,3.2l-2.6,14.8c-0.3,1.7-0.7,3.3-1.1,4.6    c-0.2,0.7-0.5,1.4-0.9,2.1l1.5-0.3l11-1.9c-0.2-0.7-0.3-1.5-0.2-2.4c0-0.6,0.1-1,0.1-1.4c0.1-0.4,0.2-1.4,0.5-3.2l2.2-12.7    c0.2-1.1,0.5-1.9,0.9-2.5s1-0.9,1.7-1.1l3.2-0.5c0.6-0.1,1,0,1.3,0.3c0.2,0.3,0.3,0.8,0.3,1.4c0,0.5-0.1,1-0.2,1.5l-2.3,13    c-0.3,1.6-0.5,2.7-0.7,3.4c-0.3,1.2-0.8,2.3-1.3,3.3l12.5-2.1c-0.2-0.8-0.3-1.6-0.3-2.4c0-0.7,0.1-1.3,0.2-2    c0.1-0.7,0.3-1.5,0.5-2.6l2.2-12.6c0.2-1.4,0.5-2.3,0.9-2.8c0.4-0.5,1.1-0.8,2.1-1l2.7-0.5c0.7-0.1,1.2,0,1.5,0.2    c0.3,0.3,0.4,0.7,0.4,1.4c0,0.5-0.1,1-0.2,1.7l-2.4,13.5c-0.2,1.4-0.5,2.5-0.7,3.1c-0.3,1.1-0.7,2.1-1.3,3L347,652    c-0.2-0.6-0.2-1.3-0.2-2c0-0.4,0-0.9,0.1-1.3c0.1-0.5,0.1-1,0.2-1.6l2.3-13.1c0.3-1.5,0.4-2.9,0.5-4c0.1-2.1-0.3-3.5-1.2-4.4    C347.9,624.8,346.4,624.5,344.3,624.8z" />
		<polygon class="st0" points="367.4,618.2 368.7,611 358,612.8 356.7,620   " />
		<path class="st0" d="M362.8,644.6c0.1-0.5,0.2-1.3,0.4-2.3L367,621l-11.6,2c0.2,0.6,0.3,1.4,0.2,2.4c0,0.6-0.1,1-0.1,1.4    c-0.1,0.4-0.2,1.4-0.5,3.2l-2.6,14.8c-0.3,1.7-0.7,3.2-1.1,4.5c-0.2,0.7-0.5,1.4-0.9,2.2l12.5-2.1c-0.2-0.6-0.3-1-0.3-1.3    c0-0.2,0-0.6,0-1.1C362.5,646.4,362.6,645.6,362.8,644.6z" />
		<path class="st0" d="M394.1,616.4l-8,1.4c-1,0.2-1.8,0.5-2.5,1c-0.6,0.5-1.3,1.3-1.9,2.5l0.1-2.8l-10.4,1.8    c0.2,0.6,0.3,1.5,0.2,2.4c0,0.6-0.1,1-0.1,1.4c-0.1,0.4-0.2,1.4-0.5,3.2l-2.6,14.8c-0.3,1.6-0.6,3.1-1.1,4.4    c-0.2,0.8-0.5,1.5-0.9,2.2l12.4-2.1c-0.2-0.7-0.3-1.5-0.2-2.4c0-0.6,0.1-1,0.1-1.4c0.1-0.4,0.2-1.4,0.5-3.2l2.3-13.2    c0.2-1,0.4-1.7,0.8-2.2c0.4-0.5,0.9-0.8,1.6-0.9l3.2-0.5c0.7-0.1,1.2-0.1,1.5,0.2c0.3,0.3,0.4,0.7,0.4,1.3c0,0.3-0.1,0.8-0.2,1.7    l-2.4,13.6c-0.2,1.4-0.5,2.5-0.7,3.1c-0.3,1.1-0.7,2.1-1.3,3l11.9-2l0.6-0.1c0-0.2-0.1-0.4-0.1-0.5c-0.1-0.6-0.2-1.2-0.1-1.9    c0-0.6,0.1-1,0.1-1.4c0.1-0.4,0.2-1.4,0.5-3.2l2.1-11.9c0.2-1.1,0.3-2,0.3-2.7c0.1-2.1-0.4-3.6-1.3-4.6    C397.4,616.4,396,616,394.1,616.4z" />
		<path class="st0" d="M433,617c0-0.3,0.1-0.7,0.1-1.2c0.1-2.3-0.5-3.8-1.8-4.6c-0.8-0.5-2-0.7-3.6-0.6c-0.5,0-0.9,0.1-1.5,0.2    l-14.1,2.4l-1.2,0.2c-1.8,0.3-3.4,1.3-4.8,3c-1.4,1.7-2.4,3.7-2.8,6l-2.1,12.1c-0.1,0.7-0.2,1.2-0.2,1.5c0,0.2,0,0.5,0,0.9    c0,0.2,0,0.3,0,0.5c0,2.1,0.7,3.4,1.9,4c1.1,0.5,2.8,0.6,5.2,0.2l11.3-1.9l3.6-0.6c4.2-0.7,6.8-3.8,7.7-9.3l0.4-2.3l1.6-9    C432.9,617.8,433,617.3,433,617z M419.2,633.7c-0.5,0.6-1.2,1-2.1,1.2l-3,0.5c-1.4,0.2-2.1-0.3-2.1-1.7c0-0.5,0.1-0.9,0.1-1.3    l1.6-9.2l0.4-2c0.4-2.1,1.5-3.3,3.1-3.6l2.6-0.4c0.1,0,0.3,0,0.4,0c1.4-0.1,2.1,0.5,2.1,1.9c0,0.1,0,0.3,0,0.5    c0,0.2-0.1,0.5-0.1,0.7l-1.9,10.6C420,632.2,419.7,633.1,419.2,633.7z" />
		<path class="st0" d="M450.2,607.7c-0.9,0.8-1.8,2.1-2.6,4.1l0.6-4.6l-10.6,1.8c0.2,0.6,0.3,1.5,0.2,2.4c0,0.6-0.1,1-0.1,1.4    c-0.1,0.4-0.2,1.4-0.5,3.2l-1.3,7.2l-1.3,7.6c-0.3,1.7-0.7,3.3-1.1,4.6c-0.2,0.7-0.5,1.4-0.9,2.1l12.4-2.1    c-0.2-0.7-0.3-1.5-0.2-2.4c0-0.6,0.1-1,0.1-1.4c0.1-0.4,0.2-1.4,0.5-3.2l1.6-9.3c0.2-1.4,0.8-2.5,1.5-3.3c0.8-0.8,1.7-1.4,2.8-1.5    l2.2-0.4c1-0.2,1.8-0.2,2.5-0.1c0.7,0.1,1.2,0.4,1.7,1l1.4-7.8l0.3-1.6l-5.3,0.9C452.4,606.4,451.2,607,450.2,607.7z" />
		<path class="st0" d="M506.6,598.6c-1-0.8-2.4-1-4.3-0.6l-7.8,1.3c-0.8,0.1-1.5,0.4-2.1,0.8c-0.6,0.4-1.1,1-1.6,1.8l1.6-8.9    l0.5-3.1l-11.5,2c0.2,0.6,0.3,1.4,0.2,2.3c0,0.7-0.1,1.5-0.3,2.5c0,0.1,0,0.1,0,0.2l-0.3,2.1l-4.2,24.2l-0.4,2.1    c-0.2,0.9-0.4,1.8-0.7,2.7c-0.3,0.9-0.6,1.7-1.1,2.5l10.7-1.8l0.9-2.7c0.2,1,0.7,1.6,1.3,1.9c0.5,0.2,1.3,0.2,2.4,0l6.9-1.2    c2.5-0.4,4.5-1.5,6-3.2c1.5-1.7,2.5-4.2,3-7.5l1.9-10.7c0-0.2,0.1-0.5,0.2-1c0-0.4,0-0.8,0-1.3C508,600.7,507.6,599.3,506.6,598.6    z M497,607.1l-2,11.5c-0.2,1.2-0.5,2-0.9,2.5c-0.4,0.5-1.1,0.8-2,1l-2.6,0.4c-0.7,0.1-1.2,0.1-1.5-0.2c-0.3-0.2-0.5-0.7-0.5-1.3    c0-0.1,0-0.2,0-0.3c0-0.1,0-0.3,0.1-0.5l2.2-12.4c0.2-1,0.5-1.7,1-2.2c0.5-0.5,1.1-0.8,1.9-0.9l2.6-0.4c1.4-0.2,2,0.3,2,1.5    C497.2,606.2,497.1,606.6,497,607.1z" />
		<path class="st0" d="M534.8,592.4l-1.1,0.2l-1,0.2l-12.4,2.1l-6.4,1.1l-1.9,6.8c0.8-0.7,1.6-1.1,2.3-1.4c0.7-0.3,1.5-0.5,2.5-0.7    l3.2-0.6l7.1-1.2c0.7-0.1,1.3-0.1,1.6,0.1c0.4,0.2,0.5,0.7,0.3,1.5c-0.1,0.8-0.4,1.3-0.7,1.6c-0.3,0.3-0.8,0.5-1.4,0.6l-0.7,0.1    l-6.5,1.1l-3.7,0.6c-1.7,0.3-3.1,1.1-4.3,2.4c-1.2,1.3-2,3-2.4,5.1l-0.8,4.9c-0.1,0.8-0.2,1.3-0.2,1.5c0,0.2,0,0.5,0,0.9    c-0.1,2,0.4,3.3,1.3,3.9c0.9,0.6,2.4,0.8,4.3,0.5l3.2-0.5l4.8-0.8c1-0.2,1.8-0.5,2.6-1.1c0.8-0.6,1.4-1.4,1.8-2.6l0,0.7    c0,0.4,0,0.8,0,1.2c0,0.3,0.1,0.7,0.1,1l6.1-1l4.4-0.7c-0.2-0.6-0.2-1.3-0.2-2c0.2-1.6,0.4-3.3,0.6-5l2.3-13.2    c0.1-0.7,0.2-1.2,0.2-1.8c0.1-1.9-0.4-3.3-1.3-4.3C537.6,592.5,536.3,592.1,534.8,592.4z M527,612.6c-0.2,1.4-0.5,2.3-1,2.9    c-0.4,0.6-1.2,1-2.2,1.2l-2.6,0.4c-0.8,0.1-1.3,0-1.6-0.3c-0.3-0.3-0.5-0.8-0.4-1.5c0-0.4,0.1-0.9,0.2-1.4l0.2-1.3    c0.2-1.3,0.5-2.3,1-2.9c0.4-0.6,1.2-1,2.2-1.2l5.1-0.9L527,612.6z" />
		<path class="st0" d="M548.1,591.4c-2.1,1.6-3.4,3.9-4,7.1l-0.8,4.7c0,0.2-0.1,0.4-0.2,0.9c0,0.4,0,0.8,0,1.2    c-0.1,3.4,1.4,4.8,4.6,4.3l9.5-1.6c0.5-0.1,0.9,0,1.1,0.1c0.3,0.2,0.4,0.5,0.3,1.1c-0.1,0.7-0.4,1.2-0.7,1.4    c-0.4,0.3-0.9,0.4-1.5,0.5l-9.3,1.6c-1.4,0.2-2.4,0.3-3.2,0.2c-0.7-0.1-1.6-0.5-2.7-1.1l-0.3,7.1l18.6-3.2    c2.4-0.4,4.4-1.3,5.9-2.7c1.8-1.7,2.9-4,3.5-7.1l0.7-4c0-0.2,0.1-0.5,0.2-1c0-0.5,0-0.9,0-1.4c0.1-1.9-0.4-3.2-1.2-3.9    c-0.9-0.7-2.3-0.9-4.1-0.6l-8.9,1.5c-0.9,0.1-1.2-0.2-1-1.1c0.1-0.5,0.3-0.9,0.6-1.1c0.3-0.2,0.6-0.3,1.1-0.4l9.5-1.6    c1.3-0.2,2.3-0.3,3-0.2c0.7,0.1,1.4,0.4,2.1,1.1l0.3-7l-16.7,2.8C551.7,589.5,549.6,590.3,548.1,591.4z" />
		<path class="st0" d="M583,600.8l18-3.1l1.3-7.5c0.2-1.3,0.3-2.4,0.4-3.3c0.1-2.3-0.4-3.7-1.4-4.4c-1-0.7-2.7-0.9-5-0.5l-13.4,2.3    c-2.6,0.4-4.6,1.5-6.1,3.2c-1.4,1.7-2.4,4.3-3,7.7l-1.6,9.2c-0.2,1.2-0.3,2.2-0.4,3.1c-0.1,2.4,0.5,3.9,1.6,4.7    c1,0.7,2.7,0.8,5.1,0.4l19.4-3.3l2-6.8c-0.7,0.6-1.4,1.1-2,1.3c-0.6,0.3-1.6,0.6-2.9,0.8l-9.7,1.6c-1,0.2-1.8,0.2-2.2,0    c-0.4-0.2-0.6-0.7-0.6-1.6c0-0.4,0.1-1,0.2-1.5L583,600.8z M584.5,592c0.2-1,0.4-1.7,0.7-2.2c0.3-0.5,0.7-0.8,1.3-0.9l4.2-0.7    c0.5-0.1,0.9,0,1.1,0.2c0.2,0.3,0.3,0.6,0.3,1.2c0,0.4-0.1,0.9-0.2,1.4l-0.5,3.1l-7.5,1.3L584.5,592z" />
		<path class="st0" d="M634.2,576.9c-1-0.8-2.4-1-4.3-0.6l-7.8,1.3c-0.8,0.1-1.5,0.4-2.1,0.8c0,0-0.1,0.1-0.1,0.1    c-0.6,0.4-1.1,0.9-1.5,1.7l2.1-12l-11.5,2c0.2,0.6,0.3,1.4,0.2,2.3c0,0.8-0.1,1.6-0.3,2.7l-0.3,2.1l-4.2,24.2l-0.4,2.1    c-0.2,0.9-0.4,1.8-0.7,2.7c-0.3,0.9-0.6,1.7-1.1,2.5l10.7-1.8l0.9-2.7c0.2,1,0.7,1.6,1.3,1.9c0.2,0.1,0.3,0.1,0.5,0.1    c0.5,0.1,1.1,0,1.8-0.1l6.9-1.2c2.5-0.4,4.5-1.5,6-3.2c1.5-1.7,2.5-4.2,3-7.5l1.9-10.7c0-0.2,0.1-0.5,0.2-1c0-0.4,0-0.8,0-1.3    C635.6,579,635.2,577.6,634.2,576.9z M624.6,585.4l-2,11.5c-0.2,1.2-0.5,2-0.9,2.5c-0.4,0.5-1.1,0.8-2,1l-2.6,0.4    c-0.2,0-0.3,0-0.5,0.1c-0.4,0-0.8-0.1-1-0.2c-0.3-0.2-0.5-0.7-0.5-1.3c0-0.1,0-0.2,0-0.3c0-0.1,0-0.3,0.1-0.5l2.2-12.4    c0.2-1,0.5-1.7,1-2.2c0.3-0.3,0.6-0.5,1-0.6c0.3-0.1,0.6-0.2,0.9-0.3l2.6-0.4c1.4-0.2,2,0.3,2,1.5    C624.8,584.5,624.7,584.9,624.6,585.4z" />
		<path class="st0" d="M662.3,570.7l-1.1,0.2l-19.8,3.4l-1.9,6.8c0.8-0.7,1.6-1.1,2.3-1.4c0.7-0.3,1.5-0.5,2.5-0.7l10.3-1.8    c0.7-0.1,1.3-0.1,1.6,0.1c0.4,0.2,0.5,0.7,0.3,1.5c-0.1,0.8-0.4,1.3-0.7,1.6s-0.8,0.5-1.4,0.6l-0.7,0.1l-10.2,1.7    c-1.7,0.3-3.1,1.1-4.3,2.4c-1.2,1.3-2,3-2.4,5.1l-0.8,4.9c-0.1,0.8-0.2,1.3-0.2,1.5c0,0.2,0,0.5,0,0.9c-0.1,2,0.4,3.3,1.3,3.9    c0.9,0.6,2.4,0.8,4.3,0.5l8-1.4c1-0.2,1.8-0.5,2.6-1.1c0.8-0.6,1.4-1.4,1.8-2.6l0,0.7c0,0.4,0,0.8,0,1.2c0,0.3,0.1,0.7,0.1,1    l10.5-1.8c-0.2-0.6-0.2-1.3-0.2-2c0.2-1.6,0.4-3.3,0.6-5l2.3-13.2c0.1-0.7,0.2-1.2,0.2-1.8c0.1-1.9-0.4-3.3-1.3-4.3    C665.2,570.8,663.9,570.4,662.3,570.7z M654.6,590.9c-0.2,1.4-0.5,2.3-1,2.9c-0.4,0.6-1.2,1-2.2,1.2l-2.6,0.4    c-0.8,0.1-1.3,0-1.6-0.3c-0.3-0.3-0.5-0.8-0.4-1.5c0-0.4,0.1-0.9,0.2-1.4l0.2-1.3c0.2-1.4,0.5-2.3,1-2.9c0.4-0.6,1.2-1,2.2-1.2    l5.1-0.9L654.6,590.9z" />
		<path class="st0" d="M680.5,588.3L686,557l-11.5,2c0.2,0.8,0.3,1.6,0.3,2.4c0,0.8-0.1,1.5-0.2,2.3c-0.1,0.8-0.3,1.5-0.4,2.3    l-4.3,24.8c-0.3,1.7-0.7,3.2-1.1,4.5c-0.2,0.7-0.5,1.4-0.9,2.2l12.4-2.1c-0.2-0.8-0.3-1.6-0.3-2.4c0-0.7,0.1-1.3,0.2-2    C680.2,590.2,680.3,589.3,680.5,588.3z" />
		<path class="st0" d="M696.5,585.6l5.5-31.3l-11.5,2c0.2,0.8,0.3,1.6,0.3,2.4c0,0.8-0.1,1.5-0.2,2.3c-0.1,0.8-0.3,1.5-0.4,2.3    l-4.3,24.8c-0.3,1.7-0.7,3.2-1.1,4.5c-0.2,0.7-0.5,1.4-0.9,2.2l12.4-2.1c-0.2-0.8-0.3-1.6-0.3-2.4c0-0.7,0.1-1.3,0.2-2    C696.1,587.5,696.3,586.6,696.5,585.6z" />
		<path class="st0" d="M373.7,551.4c0.1-1,0-1.9-0.1-2.7c-0.2-1.9-0.9-3.3-2-4c-1.5-1-3.9-1.2-7.2-0.7c-0.2,0-0.4,0.1-0.7,0.1    l-19.4,3.5l-1.6,0.3c-4.1,0.7-7.3,2.4-9.6,5c-2.3,2.6-3.9,6.5-5,11.7l-2.8,14c-0.1,0.7-0.2,1.3-0.3,1.9c-0.2,1-0.3,2-0.3,2.9    c-0.2,3.6,0.6,6,2.4,7.1c1.6,1,4.2,1.2,8,0.5l30.5-5.5l3.3-10.4c-1.1,0.9-2.2,1.6-3.2,2.1c-1,0.5-2.5,0.9-4.6,1.2l-15.2,2.7    c-1.6,0.3-2.8,0.3-3.4,0c-0.7-0.3-1-1.1-0.9-2.4c0-0.7,0.1-1.5,0.3-2.3l0.7-3.6l28.2-5.1l2.3-11.3    C373.4,554.5,373.6,552.8,373.7,551.4z M356.8,557.8l-0.9,4.7l-11.7,2.1l1.1-5.2c0.3-1.5,0.7-2.6,1.2-3.3c0.5-0.7,1.2-1.2,2.1-1.3    l6.6-1.2c0.8-0.2,1.4,0,1.7,0.3c0.3,0.4,0.4,1,0.4,1.8C357.1,556.3,357,557,356.8,557.8z" />
		<path class="st0" d="M398.6,540.2l3.5-17.6l-18.1,3.3c0.2,0.9,0.4,1.9,0.4,2.8c0,0.3,0,0.6,0,0.8c-0.1,1.1-0.2,2.3-0.5,3.5    c-0.2,1.2-0.5,2.4-0.7,3.5L383,538c0,0-0.1,0-0.1,0c0,0,0.1,0,0.1,0l-2.6,13l-4.6,23.2c-0.5,2.6-1.2,4.9-1.9,6.8    c-0.4,1.1-0.9,2.2-1.5,3.3l19.5-3.5c-0.3-1.2-0.4-2.4-0.4-3.7c0.1-1,0.2-2,0.4-3.1c0.2-1,0.5-2.3,0.8-3.9l3.4-16.8L398.6,540.2    L398.6,540.2z" />
		<path class="st0" d="M424,534l0.8-4.1l2.4-11.8l-8.9,1.6l-8.9,1.6l-0.4,0.1c0.3,1.2,0.4,2.4,0.4,3.7c-0.1,1.1-0.2,2.3-0.5,3.5    c-0.2,1.2-0.5,2.4-0.7,3.5l-1.5,7.3l0,0l-2.8,14.1l-3.3,16.3c-0.5,2.6-1.2,4.9-1.9,6.8c-0.4,1.1-0.9,2.2-1.5,3.3l19.5-3.5    c-0.3-1.2-0.4-2.4-0.4-3.7c0.1-1,0.2-2,0.4-3.1c0.2-1,0.5-2.3,0.8-3.9l3-15L424,534L424,534z" />
		<path class="st0" d="M471.9,527.3c-1.4-1.4-3.2-1.9-5.6-1.5c-0.1,0-0.2,0-0.2,0l-1.7,0.3l-31.1,5.6l-3.2,10.4    c1.3-1,2.5-1.8,3.6-2.2c1.1-0.4,2.4-0.8,4-1.1l13-2.3l3.2-0.6c1.2-0.2,2-0.2,2.6,0.1c0.6,0.3,0.7,1,0.5,2.2    c-0.2,1.2-0.6,2-1.2,2.4c-0.6,0.5-1.3,0.8-2.3,1l-1.1,0.2l-15.1,2.7l-0.8,0.1c-2.2,0.4-4.2,1.4-5.9,2.9c-0.3,0.3-0.6,0.5-0.9,0.8    c-1.9,2-3.2,4.6-3.9,7.8l-1.5,7.4c-0.2,1.2-0.4,1.9-0.4,2.3c0,0.4,0,0.8-0.1,1.3c-0.1,3,0.5,4.9,1.9,5.9c1.4,0.9,3.7,1.1,6.7,0.6    l12.5-2.2c1.5-0.3,2.9-0.9,4.1-1.8c1.2-0.9,2.2-2.2,2.9-3.9l-0.1,1.1c0,0.7,0,1.3,0,1.8c0,0.5,0.1,1,0.2,1.5l16.4-3    c-0.2-1-0.3-2-0.3-3.1c0.4-2.5,0.7-5,1.1-7.5l4-20.1c0.2-1,0.3-1.9,0.3-2.7C474,530.8,473.3,528.7,471.9,527.3z M453.4,556.6    c-0.4,2.1-0.9,3.5-1.6,4.5c-0.7,0.9-1.9,1.5-3.4,1.8l-4.1,0.7c-1.2,0.2-2,0.1-2.5-0.4c-0.5-0.5-0.7-1.2-0.6-2.3    c0-0.6,0.1-1.4,0.3-2.2l0.4-1.9c0.4-2.1,0.9-3.5,1.6-4.5c0.7-0.9,1.9-1.5,3.4-1.8l8-1.4L453.4,556.6z" />
		<path class="st0" d="M518.1,516.4l-12.5,2.2c-1.6,0.3-2.9,0.8-3.9,1.6c-1,0.8-2.1,2-3.1,3.8l0.2-4.2l-16.4,2.9    c0.3,1,0.4,2.2,0.3,3.7c0,0.9-0.1,1.6-0.2,2.2c-0.1,0.6-0.4,2.2-0.9,4.8l-4.5,22.5c-0.5,2.5-1.1,4.7-1.9,6.8    c-0.4,1.1-0.9,2.3-1.5,3.4l19.5-3.5c-0.3-1.1-0.4-2.3-0.3-3.7c0-0.9,0.1-1.6,0.2-2.2c0.1-0.6,0.4-2.2,0.9-4.8l4-20    c0.3-1.5,0.7-2.6,1.3-3.3c0.6-0.7,1.4-1.2,2.5-1.4l5.1-0.9c1.2-0.2,1.9-0.1,2.3,0.3c0.4,0.4,0.6,1,0.5,1.9c0,0.4-0.2,1.2-0.4,2.5    l-4.1,20.6c-0.4,2.2-0.8,3.8-1.1,4.8c-0.5,1.7-1.2,3.2-2.1,4.6l19-3.4l0.6-0.1c-0.3-1.1-0.4-2.3-0.3-3.7c0-0.9,0.1-1.6,0.2-2.2    c0.1-0.5,0.3-1.8,0.7-3.8c0.1-0.3,0.1-0.7,0.2-1l3.6-18.1c0.3-1.6,0.5-3,0.5-4.1c0.2-3.2-0.5-5.5-1.8-6.9    C523.3,516.3,521.1,515.9,518.1,516.4z" />
		<path class="st0" d="M557.7,509.3l-13.7,2.5c-2.7,0.5-5.1,2-7.2,4.5c-2.1,2.5-3.5,5.5-4.2,9.1l-3.8,18.8c-0.2,1.1-0.3,1.7-0.3,2.1    c0,0.3-0.1,0.7-0.1,1.2c-0.2,3.2,0.5,5.4,2,6.5c1.5,1.1,3.8,1.4,6.9,0.9l11.9-2.1c1.7-0.3,3.1-0.8,4.2-1.4    c1.5-0.9,2.7-2.1,3.7-3.8l-0.1,3.8l15.8-2.8c-0.3-1.1-0.4-2.3-0.3-3.7c0-0.9,0.1-1.6,0.2-2.2c0.1-0.6,0.4-2.2,0.9-4.8l7.7-38.5    l1.8-9.2l-18.1,3.3c0.1,0.6,0.3,1.2,0.3,1.7c0.1,0.6,0.1,1.3,0.1,1.9c-0.1,1.1-0.2,2.3-0.4,3.5c-0.2,1.2-0.5,2.3-0.7,3.5l-1.7,8.3    c-0.4-1.3-0.9-2.2-1.7-2.6C560.1,509.2,559,509.1,557.7,509.3z M561,519.5c0,0.5-0.1,0.8-0.1,1.1l-0.3,1.1l-3.2,16.1    c-0.4,2-1,3.5-1.6,4.5c-0.7,1-1.7,1.6-3.2,1.9l-3.8,0.7c-1.2,0.2-2,0.1-2.6-0.3c-0.6-0.4-0.8-1.1-0.8-2.2c0-0.3,0.1-0.8,0.2-1.5    l3.5-17.4c0.7-3.3,2.2-5.1,4.5-5.6l4.6-0.8C560.2,516.8,561.1,517.6,561,519.5z" />
		<path class="st0" d="M317.3,598.2c1.1,1.2,2.2,2.1,3.2,2.7c2.9,1.9,6.5,2.8,10.6,2.8c1.9,0,3.9-0.2,6.1-0.6l94.9-17l0-0.1    c0.9-0.1,1.7-0.2,2.6-0.4l8.2-1.5l77.4-13.9l9.3-1.7l7.1-1.3l0-0.1c0.9-0.1,1.8-0.2,2.8-0.4l48.4-8.7l-3.1-12.5c0-0.1,0-0.2,0-0.3    c0-0.3,0-0.5,0.1-0.8c0.1-0.5,0.4-2.1,0.8-4.4l6.8-34l3.4-17l2.9-14.4l-29.1,5.4c0,0-2.7-24.8,24.7-46.1    c32.6-25.3,28-78.6,0.4-97.6c0,0,29.6-14.8,36.5-42c0,0-10.1-25.8-49.6-35.4c0,0,43.3-22,55.1-58.6c4-12.5-2.3-20.4-17.1-30.8    c-11.5-8.1-48.9-32.1-120.5-18.2c0,0-40-20.8-102.5-3l45.7-95.6c0,0,15.6-28.6-23.8-41.6c-39.4-13-49.6,11.9-51.5,19.8l-56,173.4    c0,0-24.3,13.1-30.8,48.9c0,0-8.5,7.4-11.2,14.4c0,0-13.9,10.3-14.9,25.5c0,0-8,17.6-0.8,44.4c0,0-7.1,20.2,18.9,34.6    c0,0,0.4,3.5,1.5,8.9l-100.2,18.6l-11.2,25.2c-1.3-2.3-2.9-4.5-4.8-6.6c-6.2-6.5-14.9-10-25-10c-3.9,0-8.2,0.5-13.9,1.5    l-87.6,16.3L18,477.9l14.8,2.6c0,1.7,0,3.3,0,4.7l2.3,183.5c0.2,13.7,0.7,49.9,36.3,49.9c3.8,0,7.8-0.4,13.1-1.4l70.4-13.1    l7.3-16.8c6.3,6.4,15,9.8,25,9.8c3.6,0,7.5-0.4,12.2-1.3l48.3-9l21.4-4l43.5-94.8C313.4,592.8,315.3,596,317.3,598.2z M361.8,481    c1.4,11.2,3.9,23,8,34.9l-1,0.2l3.3,12.8c0,0.5-0.1,1.1-0.2,1.7l-0.2,1.1c-8.7-7.2-14.7-18.6-18.1-32.8L361.8,481z M383.3,434.2    c0.1-0.1,0.1-0.3,0.2-0.4c2.3,0.3,4.7-2.7,5.2-6.8c0.2-1.7,0.1-3.4-0.3-4.7c1-2.7,1.9-5.1,2.5-7.4c2.7,1.3,5.6,2.7,8.6,4.2    c-4.1,16.9-10.1,54,4.5,90.7l-9.5,1.7c0-0.7-0.1-1.5-0.3-2.2c-0.9-4-3.6-6.8-5.8-6.3c-2.3,0.5-3.4,4.2-2.5,8.2    c0.1,0.6,0.3,1.2,0.5,1.7l-8.2,1.5c-6.2-17.1-8.7-34-9.3-49.3L383.3,434.2z M350.6,534l-10,1.8c-1.5,0.3-3,0.7-4.4,1.1l1.1-2.3    l6.7-14.5C343.5,522.4,348.6,533,350.6,534z M585.6,483.4c1.5,0.7,3,1.5,4.6,2.3l-3.2,16.2l-7.4,37c-0.5,2.5-0.8,4-0.9,4.6    c-0.1,0.4-0.1,0.9-0.1,1.5c0,1,0,1.5,0.1,1.9l1.6,6.4l-29.5,5.3l-12.4,2.2c-1.3,0.2-2.6,0.4-3.8,0.4c-2.3,0-4.3-0.4-6-1.3l0.6,2.6    l-1,0.2l-7.4,1.3l-54,9.7l-19.1,3.4l0-0.1c-0.5,0.1-1,0.2-1.5,0.3l-12.5,2.2c-1.5,0.3-2.8,0.4-4.1,0.4c-2.1,0-4-0.4-5.7-1.1    l0.6,2.4l-25,4.5l0,0l-29.2,5.2l0,0l-34.1,6.1c-1.8,0.3-3.5,0.5-5,0.5c-2.9,0-5.3-0.6-7.3-1.9c-1.3-0.9-2.7-2.2-3.8-4.2    c-1-2-1.7-4.7-1.5-8.4c0.1-1.7,0.3-3.7,0.8-5.7l1.3-6.6l11.5-25.1c2.7-1.9,5.8-3.2,9.5-3.9l8.4-1.5l7.8-1.4l4.8-0.9    c1.8-0.3,3.4-0.5,4.8-0.5c3,0,5.5,0.7,7.5,2c0.4,0.3,0.8,0.6,1.2,1l1-5.2l0-0.1c0.1-0.4,0.2-0.9,0.3-1.3c0.2-0.7,0.3-1.5,0.5-2.2    c0.2-0.9,0.3-1.8,0.3-2.6c0-0.6,0-1.2-0.2-1.8l-1.7-6.4l4.2-0.8l20.9-3.7v0l3.8-0.7l1.4-0.2l3.3-0.6v0l5.5-1l19.6-3.5l-3,15.2    l12.4-2.2l20.7-3.7c0.9-0.2,1.9-0.3,2.8-0.3c2.2,0,4.2,0.5,6,1.6c0.8,0.5,1.6,1.1,2.3,1.8l-0.8-2.7c1.8-1.1,3.5-2.1,5.3-3.1    l36.4-6.5c1.2-0.2,2.3-0.3,3.4-0.3c4.5,0,7.2,1.9,8.7,3.4c0.4,0.4,0.8,1,1.1,1.5c0.6-0.9,1.2-1.8,1.9-2.6c3-3.7,6.7-5.9,10.8-6.6    l13.7-2.5c0.5-0.1,1-0.2,1.5-0.2c0,0,0.6-2.7,0.8-3.8c0.2-0.9,0.3-1.7,0.3-2.6c0-0.6,0-1.2-0.2-1.8l-0.1-0.5l-1.5-5.9L585.6,483.4    z M549.8,483.4l3.4,12.9c0,0.4-0.1,0.9-0.2,1.3l-11.2,2c-4.7,0.8-8.8,3-12.4,6.5c-2.3-1.3-5.3-2.2-9.1-2.2c-1.4,0-2.9,0.1-4.4,0.4    l-17.2,3.1l-36.6,6.1l-22.5,4.5l3-15.2l-30,5.4c-14-33.8-9-68.8-5.2-85.6c5.3,2.3,11.1,4.7,17.4,7.1c0,0,27.7-0.7,49.1-7.4    c0,0,19.3,28.6,39.9,26.5c0,0,47.9-21.7,46.6-45.7c0,0-21.6,21.4-42.4,29.3c0,0,14.3-59.6-22.2-88.7c0,0,78.4-32.7,102.6,18.5    c16.4,34.8-5.4,55.9-18.9,66.8c-4.9,4-20.2,18.3-24,53.7 M610.4,292.8c0,0-94.8,9.9-110,2.3c0,0,13.8-6.5,26-13.7    c13.7-1.9,31.1-1.9,31.1-1.9c-8.3-2.4-16.7-3.3-22.3-3.6c1.3-0.9,2.5-1.7,3.6-2.6C538.8,273.3,583.9,260.9,610.4,292.8z     M483.3,161.4c-15.9,9.5-21.6,19.5-21.6,19.5c23.1-12.4,44.7-17.7,64.1-18.9c0.4,0.9,1.1,1.7,2.1,2.5c2.2,1.9,6,3.4,10.4,4    c7.5,1,13.9-1.2,14.4-4.8c0-0.2,0-0.5,0-0.7c4,0.5,7.8,1.2,11.5,2.1c-0.2,0.2-0.4,0.4-0.6,0.6c-0.5,0.6-0.9,1.2-1.1,1.8    c-0.1,0.2-0.1,0.4-0.2,0.6c-0.5,4,5.1,8,12.6,9c5.4,0.7,10.2-0.4,12.7-2.5c0.6-0.5,1.1-1,1.4-1.6c17.7,7.5,27.9,16,27.9,16    c-77.4,73.4-142.5,104.4-150.4,98c-0.2-0.2-0.5-0.4-0.7-0.6c-0.1-0.1-0.1-0.1-0.2-0.2c-0.1-0.1-0.3-0.3-0.4-0.5    c-0.1-0.1-0.1-0.2-0.2-0.3c-0.1-0.2-0.2-0.3-0.3-0.5c-0.1-0.1-0.1-0.2-0.1-0.3c-0.1-0.2-0.1-0.3-0.2-0.5c0-0.1-0.1-0.2-0.1-0.3    c-0.1-0.2-0.1-0.3-0.1-0.5c0-0.1,0-0.2-0.1-0.3c0-0.2-0.1-0.4-0.1-0.6c0-0.1,0-0.2,0-0.3c0-0.2,0-0.4,0-0.6c0-0.1,0-0.2,0-0.3    c0-0.2,0-0.4,0-0.7c0-0.1,0-0.2,0-0.3c0-0.3,0-0.5,0.1-0.8c0-0.1,0-0.1,0-0.2c0-0.3,0.1-0.6,0.1-0.9c0,0,0-0.1,0-0.1    c0.5-2.7,1.7-5.6,3-8.2c0,0,0,0,0,0c0.2-0.3,0.3-0.6,0.5-0.9c0,0,0,0,0-0.1c0.2-0.3,0.3-0.6,0.5-0.8c0,0,0-0.1,0-0.1    c0.1-0.3,0.3-0.5,0.4-0.8c0,0,0-0.1,0.1-0.1c0.1-0.2,0.3-0.5,0.4-0.7c0,0,0.1-0.1,0.1-0.1c0.1-0.2,0.2-0.4,0.4-0.6    c0-0.1,0.1-0.1,0.1-0.2c0.1-0.2,0.2-0.3,0.3-0.4c0.1-0.1,0.1-0.2,0.2-0.3c0,0,0,0,0-0.1c1.1-1.8,1.9-2.9,1.9-2.9    c-10.8,2.7-39.7,36.6,9.3,45.4c49,8.8,130.6-3,130.6-3c-8.9,13-28.4,23.7-28.4,23.7c-53.9-20.8-102.2,6.9-102.2,6.9    c-28.7,0-57.4,5.5-57.4,5.5c-1.3-0.8-2.6-1.5-3.8-2.2c-0.1-0.1-0.3-0.1-0.4-0.2c-3.9-2.2-7.7-4.3-11.3-6.3c0,0,0,0,0,0    c-22.1-12-37.4-18.4-37.4-18.4c-0.9-15.6,1.1-25.6,1.1-25.6s30.5-17.6,26.7-38.5c-4-22.2-16.9-21.8-16.9-21.8    c-0.1-1.8-1.6-5.7-1.6-5.7c7.3-9.3,20.8-15.5,20.8-15.5c-5.2-8.9-17.4-13.4-17.4-13.4c20.1-9.5,43.5-7.9,43.5-7.9    c-16-13-39.8-19.7-39.8-19.7C445.5,143.9,483.3,161.4,483.3,161.4z M372.8,257.3c-1.1-2.8-11.5,1.6-11.5,1.6s-16.3,10.4-18.2,1    c-1.9-9.4,36.1-32.9,42.2-17.5c11.7,29.7-42.2,46.1-42.2,46.1c-1.4-9.1-4.8-17.7-4.8-17.7C361,275.4,373.9,260,372.8,257.3z     M380.9,36.8c0,0,4.3-20.9,30.1-12.1c25.8,8.8,16.6,27.5,16.6,27.5l-17.1,34.6c0-5.3-1.6-9.4-5-11c-1.4-0.7-2.9-0.9-4.6-0.6    l7.3-31.1l-14.6,34.7l1.2-0.4c1.6-0.4,3.1-0.4,4.5,0.3c5.7,2.7,5.5,14.3-0.4,25.8c-5.9,11.5-14.3,19.1-18.8,16.9    c-1.1-0.5-1.8-1.6-2.3-3l-0.3-1.2l-14.6,34.7l15.8-27.1c0.6,1.3,1.4,2.2,2.4,2.7c2.9,1.4,7.3-0.7,12-5.1l-38.2,77.5    c-11.9-3.4-27.7,0.1-27.7,0.1L380.9,36.8z M339.2,210.1c29.6-0.2,29.7,18.3,29.7,18.3l-4.4,1.6c0,0-15.2-13.1-36.3-4.6    c0,0,18.2,3.7,23.5,10.1l-6,3.5c0,0-13.7-4.1-25.4-0.4c0,0,11.8,2.7,16.5,7.6c-5.2,5.3-4.2,11.3-4.5,13.3c0,0-7.1-16.4-36.9-11.2    C295.5,248.2,301.5,210.3,339.2,210.1z M264.4,309.8c10.1-17.6,35-16.3,35-16.3c-12.6-6-31.2-0.9-31.2-0.9    c7.5-28.2,44.3-15.9,44.3-15.9c-6.6-8.9-22.4-10.1-22.4-10.1s10.5-11.9,23.9-6.5c26.7,10.8,16.2,67.6,16.2,67.6    c6.4-4.1,9.3-12.1,9.3-12.1c73.5,27.5,112.2,66.8,112.2,66.8c-0.2-17.3-13.7-28.9-13.7-28.9c22.9-6.7,43.1-5.4,43.1-5.4    c23.6,16,25.1,50.7,25.1,50.7c-43.5,14-79.4,16-79.4,16c-11.5-4.2-22.9-9.5-33.5-15.1c-4.7-2.5-9.3-5.1-13.7-7.6    c-7.5-4.4-14.5-8.8-20.7-13c-5.9-3.9-11-7.6-15.3-10.6c-8.1-5.9-12.8-9.8-12.8-9.8s1.4-24.4-19.3-34.4    c-29.4-14.1-45.5,0.2-45.5,0.2C262.9,316.7,264.4,309.8,264.4,309.8z M266.3,340c2.8-8.8,16.4-12.4,30.4-7.9    c14,4.4,23.1,15.2,20.4,24c-2.8,8.8-16.4,12.4-30.4,7.9C272.7,359.6,263.5,348.8,266.3,340z M285.7,617.8L260.8,672l-22.9,4.3    l-40.6,7.5c-3.9,0.7-7.1,1.1-10,1.1c-7.1,0-12.7-2.2-16.8-6.6c-5.5-5.9-6.8-14.3-6.5-25.5l-17.6,40.5l-64,11.9    c-4.5,0.8-7.9,1.2-10.9,1.2c-23.5,0-23.9-22.8-24.1-37.9L45,485c0-4.1,0-10.8-0.3-14.9l-11.6-2l8-31.1l80-14.9    c4.9-0.9,8.5-1.3,11.6-1.3c6.8,0,12.3,2.1,16.2,6.2c6.9,7.2,7,18.5,6.5,31.4l-0.5,14.2l27.4-61.9l88.4-16.4l1.1,60.8l11.9-26.9    c0.8-1.8,1.4-3.5,2-4.9l-6.1-1.2l2.9-11.5l0.3-1.2l4.7-18.2l3.1-0.6l4-0.7l12.2-2.3l31-5.8c3.7,2.4,7.4,4.8,10.4,6.6l4.7,3.1    c-0.8,0.1-1.7,0.3-2.6,0.4l-10.5,1.9l-26.9,5l-13.6,2.5l-1.9,0.4l-1.1,4.3l-1.7,6.4c4,0.8,5.5,2.7,5.3,5.8    c-0.2,2.6-1.7,6.8-4.7,13.9c-0.1,0.3-0.3,0.6-0.4,0.9l-16,36.3l-7.6,17.2l0,0L260.6,511l-0.4-21.3l0,0l-0.3-15.5l-1.1-65.2    l-67.9,12.6L140.3,536l3-78c1-23.9-1.9-27.1-19.9-23.7L51,447.7l-2.7,10.7c8.3,1.5,8.9,2.9,9,26.5l2.3,183.5    c0.4,24.4,3.1,28,20.5,24.8l57.6-10.7l43.5-99.9l-4.8,65.2c-1.5,22.5,1.9,27.1,18.6,24l37.4-7l15.3-2.8l4.6-0.8L300.1,557    l35.2-76.7l14.1-30.8l11.7-25.6c2.1-4.6,3.7-8.3,4.9-11.3c1.6-4.2,2.3-7.2,2.6-9.8c0-0.1,0.1-0.3,0.1-0.4c0,0,0,0-0.1,0    c0-0.1,0-0.2,0-0.3l7.6,5c1.1,0.7,2.4,1.4,3.6,2.1c-1.2,5.1-3.6,11.1-7.7,20l-1.2,2.7l-10.4,22.7l-10.5,22.8l-11.6,25.2L313.1,558    L285.7,617.8z" />
	</g>
</g>
</svg>