<!-- Generator: Adobe Illustrator 27.9.0, SVG Export Plug-In . SVG Version: 6.00 Build 0)  -->
<svg version="1.1" id="Layer_1" xmlns="http://www.w3.org/2000/svg" xmlns:xlink="http://www.w3.org/1999/xlink" x="0px" y="0px" viewBox="0 0 720 720" style="enable-background:new 0 0 720 720;" xml:space="preserve" width="720" height="720">
<style type="text/css">
	.st0{fill:#15244A;}
</style>
<g id="minor_baseball">
	<path class="st0" d="M300.4,470.5l2.6-14.7c0.3-1.7,0.5-2.8,0.5-3.2c0.1-0.4,0.1-0.9,0.1-1.4c0-1,0-1.8-0.2-2.4l10.8-1.8l-0.2,2.7   c0.4-1.1,0.9-1.9,1.3-2.4c0.5-0.5,1.2-0.8,2.1-0.9l11.1-1.9c1.5-0.2,2.4-0.2,2.9,0.2c0.4,0.4,0.7,1,0.8,1.9   c0.4-1.1,0.9-1.9,1.4-2.4c0.5-0.5,1.2-0.8,2.1-0.9l8.7-1.5c2.1-0.4,3.5-0.1,4.4,0.8c0.9,0.9,1.2,2.3,1.2,4.4c0,1.1-0.2,2.4-0.5,3.9   l-2.3,13.1c-0.1,0.6-0.2,1.1-0.2,1.6c-0.1,0.5-0.1,0.9-0.1,1.3c0,0.7,0,1.4,0.2,2l-12.5,2.1c0.6-0.9,1-1.9,1.3-3   c0.2-0.7,0.4-1.7,0.7-3.1l2.4-13.4c0.1-0.6,0.2-1.2,0.2-1.7c0-0.6-0.1-1.1-0.4-1.4c-0.3-0.3-0.8-0.3-1.5-0.2l-2.7,0.5   c-1,0.2-1.7,0.5-2.1,1c-0.4,0.5-0.7,1.4-0.9,2.8l-2.2,12.6c-0.2,1-0.4,1.9-0.5,2.6c-0.1,0.7-0.2,1.3-0.2,2c0,0.8,0.1,1.6,0.3,2.4   l-12.5,2.1c0.6-1,1-2.1,1.3-3.3c0.2-0.6,0.4-1.7,0.7-3.4l2.3-13c0.1-0.6,0.2-1.1,0.2-1.5c0-0.6-0.1-1.1-0.3-1.4   c-0.2-0.3-0.6-0.4-1.3-0.3l-3.2,0.5c-0.8,0.1-1.4,0.5-1.7,1.1c-0.4,0.6-0.7,1.4-0.9,2.5l-2.2,12.7c-0.3,1.7-0.5,2.8-0.5,3.2   c-0.1,0.4-0.1,0.9-0.1,1.4c0,0.9,0,1.7,0.2,2.4l-12.5,2.1c0.4-0.7,0.7-1.4,0.9-2.1C299.7,473.8,300.1,472.3,300.4,470.5z" />
	<path class="st0" d="M352.4,461.7L355,447c0.3-1.7,0.5-2.8,0.5-3.2c0.1-0.4,0.1-0.9,0.1-1.4c0-1-0.1-1.8-0.2-2.4l11.6-2l-3.8,21.2   c-0.2,1-0.3,1.8-0.4,2.3c-0.2,1-0.3,1.7-0.3,2.3c0,0.5,0,0.9,0,1.1c0,0.2,0.1,0.7,0.3,1.3l-12.5,2.1c0.4-0.7,0.7-1.5,0.9-2.2   C351.7,464.9,352.1,463.4,352.4,461.7z M368.7,428.1l-1.3,7.2l-10.7,1.8l1.3-7.2L368.7,428.1z" />
	<path class="st0" d="M368.4,459l2.6-14.7c0.3-1.7,0.5-2.8,0.5-3.2c0.1-0.4,0.1-0.9,0.1-1.4c0-1-0.1-1.8-0.2-2.4l10.4-1.8l-0.1,2.8   c0.7-1.2,1.3-2,1.9-2.5c0.6-0.5,1.5-0.8,2.5-1l8-1.3c1.9-0.3,3.3,0,4.2,1c0.9,1,1.3,2.5,1.3,4.6c0,0.7-0.1,1.6-0.3,2.7l-2.1,11.9   c-0.3,1.7-0.5,2.8-0.5,3.2c-0.1,0.4-0.1,0.9-0.1,1.4c0,0.9,0.1,1.7,0.2,2.4l-12.5,2.1c0.6-0.9,1-1.9,1.3-3c0.2-0.7,0.4-1.7,0.7-3.1   l2.4-13.5c0.1-0.8,0.2-1.4,0.2-1.7c0-0.6-0.1-1-0.4-1.3c-0.3-0.3-0.8-0.3-1.5-0.2l-3.2,0.5c-0.7,0.1-1.2,0.4-1.6,0.9   c-0.4,0.5-0.6,1.2-0.8,2.2l-2.3,13.1c-0.3,1.7-0.5,2.8-0.5,3.2c-0.1,0.4-0.1,0.9-0.1,1.4c0,0.9,0,1.7,0.2,2.4l-12.4,2.1   c0.4-0.7,0.7-1.5,0.9-2.2C367.8,462.1,368.1,460.6,368.4,459z" />
	<path class="st0" d="M412.3,430.3l14.1-2.4c2.3-0.4,4-0.3,5,0.4c1.2,0.8,1.8,2.3,1.8,4.6c0,0.5,0,0.9-0.1,1.2   c0,0.3-0.1,0.8-0.2,1.5l-2,11.3c-1,5.4-3.5,8.5-7.7,9.2l-14.9,2.5c-2.4,0.4-4.1,0.3-5.2-0.2c-1.4-0.7-2-2.2-1.9-4.5   c0-0.3,0-0.6,0-0.9c0-0.2,0.1-0.7,0.2-1.5l2.1-12c0.4-2.3,1.4-4.3,2.8-6c1.4-1.7,3-2.7,4.8-3L412.3,430.3z M414.1,438.3l-2,11.2   c-0.1,0.3-0.1,0.7-0.1,1.3c0,1.3,0.7,1.9,2.1,1.7l3-0.5c0.9-0.2,1.6-0.5,2.1-1.2c0.5-0.6,0.8-1.5,1-2.8l1.9-10.6   c0-0.2,0.1-0.5,0.1-0.7c0-0.2,0-0.4,0-0.5c0-1.5-0.8-2.1-2.5-1.8l-2.6,0.4C415.5,435,414.5,436.2,414.1,438.3z" />
	<path class="st0" d="M434.6,447.8l2.6-14.7c0.3-1.7,0.5-2.8,0.5-3.2c0.1-0.4,0.1-0.9,0.1-1.4c0-1-0.1-1.8-0.2-2.4l10.6-1.8   l-0.6,4.6c0.8-1.9,1.7-3.3,2.6-4c0.9-0.8,2.2-1.3,3.9-1.6l5.3-0.9l-1.7,9.4c-0.4-0.6-1-0.9-1.7-1c-0.7-0.1-1.5-0.1-2.5,0.1   l-2.2,0.4c-1.1,0.2-2,0.7-2.8,1.5c-0.8,0.8-1.3,2-1.5,3.3l-1.6,9.3c-0.3,1.7-0.5,2.8-0.5,3.2c-0.1,0.4-0.1,0.9-0.1,1.4   c0,0.9,0,1.7,0.2,2.4l-12.4,2.1c0.4-0.7,0.7-1.4,0.9-2.1C434,451,434.3,449.5,434.6,447.8z" />
	<path class="st0" d="M492.9,407l-2.1,11.9c0.5-0.8,1-1.4,1.6-1.8c0.6-0.4,1.3-0.6,2.1-0.8l7.8-1.3c1.9-0.3,3.4-0.1,4.3,0.6   c1,0.7,1.4,2.2,1.4,4.2c0,0.5,0,0.9,0,1.3c-0.1,0.5-0.2,0.8-0.2,1l-1.9,10.7c-0.6,3.3-1.6,5.8-3,7.5c-1.5,1.7-3.5,2.8-6,3.2   l-6.9,1.2c-1.1,0.2-1.9,0.2-2.4,0c-0.7-0.3-1.1-0.9-1.3-1.9l-0.9,2.7l-10.7,1.8c0.4-0.7,0.8-1.6,1.1-2.5c0.3-0.9,0.5-1.8,0.7-2.7   l0.4-2.1l4.2-24.1l0.3-2.1c0.2-1,0.3-1.9,0.3-2.7c0-0.9-0.1-1.6-0.2-2.2L492.9,407z M489.7,425l-2.2,12.3c0,0.2-0.1,0.3-0.1,0.5   c0,0.2,0,0.3,0,0.3c0,0.7,0.1,1.1,0.5,1.3c0.4,0.2,0.9,0.3,1.5,0.2l2.6-0.4c0.9-0.2,1.6-0.5,2-1c0.4-0.5,0.7-1.3,0.9-2.5l2-11.5   c0.1-0.5,0.2-0.9,0.2-1.3c0-1.2-0.6-1.7-2-1.5l-2.6,0.4c-0.8,0.1-1.5,0.4-1.9,0.9C490.2,423.2,489.9,424,489.7,425z" />
	<path class="st0" d="M513.9,413.1l19.8-3.4l1.1-0.2c1.6-0.3,2.8,0.1,3.7,1c0.9,1,1.3,2.4,1.3,4.2c0,0.5-0.1,1.1-0.2,1.8l-2.3,13.2   c-0.2,1.7-0.4,3.3-0.6,5c0,0.7,0,1.4,0.2,2l-10.5,1.8c-0.1-0.3-0.1-0.6-0.1-1c0-0.3,0-0.7,0-1.2l0-0.7c-0.4,1.1-1.1,2-1.8,2.5   c-0.8,0.6-1.7,1-2.6,1.1l-8,1.3c-1.9,0.3-3.3,0.2-4.3-0.5c-0.9-0.6-1.4-1.9-1.3-3.9c0-0.3,0-0.6,0-0.9c0-0.2,0.1-0.8,0.2-1.5   l0.8-4.8c0.4-2.1,1.2-3.8,2.4-5.1c1.2-1.3,2.6-2.1,4.3-2.4l10.2-1.7l0.7-0.1c0.6-0.1,1.1-0.3,1.4-0.6c0.3-0.3,0.6-0.8,0.7-1.6   c0.1-0.8,0-1.3-0.3-1.5c-0.4-0.2-0.9-0.2-1.6-0.1l-10.3,1.8c-1,0.2-1.8,0.4-2.5,0.7s-1.4,0.8-2.3,1.4L513.9,413.1z M527.9,424.7   l-5.1,0.9c-1,0.2-1.7,0.6-2.2,1.2c-0.4,0.6-0.8,1.6-1,2.9l-0.2,1.3c-0.1,0.5-0.2,1-0.2,1.4c0,0.7,0.1,1.2,0.4,1.5   c0.3,0.3,0.9,0.4,1.6,0.3l2.6-0.4c1-0.2,1.7-0.6,2.2-1.2c0.4-0.6,0.8-1.6,1-2.9L527.9,424.7z" />
	<path class="st0" d="M543.3,420.3l0.8-4.7c0.6-3.2,1.9-5.6,4-7.1c1.5-1.1,3.6-1.9,6.3-2.3l16.7-2.8l-0.3,7c-0.7-0.7-1.4-1-2.1-1.1   c-0.7-0.1-1.7,0-3,0.2l-9.5,1.6c-0.5,0.1-0.8,0.2-1.1,0.4c-0.3,0.2-0.5,0.5-0.6,1.1c-0.2,0.9,0.2,1.3,1,1.1l8.9-1.5   c1.9-0.3,3.2-0.1,4.1,0.6c0.9,0.7,1.3,2,1.2,3.9c0,0.4,0,0.9,0,1.3c-0.1,0.5-0.2,0.8-0.2,1l-0.7,4c-0.5,3-1.7,5.4-3.5,7.1   c-1.5,1.4-3.5,2.3-5.9,2.7l-18.6,3.2l0.3-7.1c1.1,0.6,2,1,2.7,1.1c0.7,0.1,1.8,0,3.2-0.2l9.3-1.6c0.6-0.1,1.1-0.3,1.5-0.5   c0.4-0.3,0.6-0.7,0.7-1.4c0.1-0.6,0-0.9-0.3-1.1c-0.3-0.2-0.7-0.2-1.1-0.1l-9.5,1.6c-3.2,0.5-4.7-0.9-4.6-4.3c0-0.4,0-0.8,0-1.2   C543.2,420.8,543.2,420.5,543.3,420.3z" />
	<path class="st0" d="M600.9,414.7l-18,3.1l-0.4,2.4c-0.1,0.6-0.2,1.1-0.2,1.5c0,0.9,0.2,1.4,0.6,1.6c0.4,0.2,1.2,0.2,2.2,0l9.7-1.6   c1.3-0.2,2.3-0.5,2.9-0.8c0.6-0.3,1.3-0.7,2-1.3l-2,6.8l-19.4,3.3c-2.4,0.4-4.1,0.3-5.1-0.4c-1.1-0.8-1.7-2.3-1.6-4.7   c0-0.9,0.1-2,0.4-3.1l1.6-9.2c0.6-3.4,1.6-6,3-7.7c1.4-1.7,3.5-2.8,6.1-3.2l13.4-2.3c2.3-0.4,4-0.2,5,0.5c1,0.7,1.5,2.2,1.4,4.4   c0,0.9-0.1,2-0.4,3.3L600.9,414.7z M591.4,411.1l0.5-3.1c0.1-0.5,0.2-1,0.2-1.4c0-0.5-0.1-0.9-0.3-1.2c-0.2-0.2-0.5-0.3-1.1-0.2   l-4.2,0.7c-0.6,0.1-1,0.4-1.3,0.9c-0.3,0.5-0.5,1.2-0.7,2.2l-0.6,3.4L591.4,411.1z" />
	<path class="st0" d="M620.5,385.3l-2.1,11.9c0.5-0.8,1-1.4,1.6-1.8c0.6-0.4,1.3-0.6,2.1-0.8l7.8-1.3c1.9-0.3,3.4-0.1,4.3,0.6   c1,0.7,1.4,2.2,1.4,4.2c0,0.5,0,0.9,0,1.3c-0.1,0.5-0.2,0.8-0.2,1l-1.9,10.7c-0.6,3.3-1.6,5.8-3,7.5c-1.5,1.7-3.5,2.8-6,3.2   l-6.9,1.2c-1.1,0.2-1.9,0.2-2.4,0c-0.7-0.3-1.1-0.9-1.3-1.9l-0.9,2.7l-10.7,1.8c0.4-0.7,0.8-1.6,1.1-2.5c0.3-0.9,0.5-1.8,0.7-2.7   l0.4-2.1l4.2-24.1l0.3-2.1c0.2-1,0.3-1.9,0.3-2.7c0-0.9-0.1-1.6-0.2-2.2L620.5,385.3z M617.3,403.3l-2.2,12.3c0,0.2,0,0.3-0.1,0.5   c0,0.2,0,0.3,0,0.3c0,0.7,0.1,1.1,0.5,1.3c0.3,0.2,0.9,0.3,1.5,0.2l2.6-0.4c0.9-0.2,1.6-0.5,2-1c0.4-0.5,0.7-1.3,0.9-2.5l2-11.5   c0.1-0.5,0.2-0.9,0.2-1.3c0-1.2-0.6-1.7-2-1.5l-2.6,0.4c-0.8,0.1-1.5,0.4-1.9,0.9C617.8,401.6,617.5,402.3,617.3,403.3z" />
	<path class="st0" d="M641.5,391.4l19.8-3.4l1.1-0.2c1.6-0.3,2.8,0.1,3.7,1c0.9,1,1.3,2.4,1.3,4.2c0,0.5-0.1,1.1-0.2,1.8l-2.3,13.2   c-0.2,1.7-0.4,3.3-0.6,4.9c0,0.7,0,1.4,0.2,2l-10.5,1.8c-0.1-0.3-0.1-0.6-0.1-1c0-0.3,0-0.7,0-1.2l0-0.7c-0.4,1.1-1.1,2-1.8,2.5   c-0.8,0.6-1.7,0.9-2.6,1.1l-8,1.4c-1.9,0.3-3.3,0.2-4.3-0.5c-0.9-0.6-1.4-1.9-1.3-3.9c0-0.3,0-0.6,0-0.9c0-0.2,0.1-0.8,0.2-1.5   l0.8-4.9c0.4-2.1,1.2-3.8,2.4-5.1c1.2-1.3,2.6-2.1,4.3-2.4l10.2-1.7l0.7-0.1c0.6-0.1,1.1-0.3,1.4-0.6s0.6-0.8,0.7-1.6   c0.1-0.8,0-1.3-0.3-1.5c-0.4-0.2-0.9-0.2-1.6-0.1l-10.3,1.8c-1,0.2-1.8,0.4-2.5,0.7c-0.7,0.3-1.4,0.8-2.3,1.4L641.5,391.4z    M655.5,403.1l-5.1,0.9c-1,0.2-1.7,0.6-2.2,1.2c-0.4,0.6-0.8,1.6-1,2.9l-0.2,1.3c-0.1,0.5-0.2,1-0.2,1.4c0,0.7,0.1,1.2,0.4,1.5   c0.3,0.3,0.9,0.4,1.6,0.3l2.6-0.4c1-0.2,1.7-0.6,2.2-1.2c0.4-0.6,0.8-1.6,1-2.9L655.5,403.1z" />
	<path class="st0" d="M669.8,407.9l4.3-24.7c0.1-0.7,0.3-1.5,0.4-2.3c0.1-0.8,0.2-1.6,0.2-2.3c0-0.8-0.1-1.6-0.3-2.4l11.5-2   l-5.5,31.2c-0.2,1-0.4,1.9-0.5,2.6c-0.1,0.7-0.2,1.3-0.2,2c0,0.8,0.1,1.6,0.3,2.4l-12.4,2.1c0.4-0.7,0.7-1.5,0.9-2.2   C669.1,411.1,669.5,409.6,669.8,407.9z" />
	<path class="st0" d="M685.7,405.2l4.3-24.7c0.1-0.7,0.3-1.5,0.4-2.3c0.1-0.8,0.2-1.6,0.2-2.3c0-0.8-0.1-1.6-0.3-2.4l11.5-2   l-5.5,31.2c-0.2,1-0.4,1.9-0.5,2.6c-0.1,0.7-0.2,1.3-0.2,2c0,0.8,0.1,1.6,0.3,2.4l-12.4,2.1c0.4-0.7,0.7-1.5,0.9-2.2   C685.1,408.3,685.4,406.9,685.7,405.2z" />
</g>
<g id="Welland">
	<path class="st0" d="M584.7,362.6c0-0.3,0-0.5,0.1-0.8c0.1-0.5,0.4-2.1,0.8-4.4l13.1-65.1l-48.8,8.7l3.3,12.7   c0,0.4-0.1,0.9-0.2,1.3l-11.2,2c-4.7,0.8-8.8,3-12.4,6.4c-2.3-1.3-5.3-2.2-9.1-2.2c-1.4,0-2.9,0.1-4.4,0.4l-48.9,8.8l0.1,0.2   c-1,0-2.1,0.1-3.2,0.3l-24.2,4.3l3-15.1l-73.9,13.2l3.3,12.7c0,0.5-0.1,1.1-0.2,1.6l-0.3,1.3c-1.3-0.2-2.7-0.4-4.2-0.4   c-1.8,0-3.8,0.2-5.9,0.6l-21,3.8c-1.5,0.3-3,0.6-4.4,1.1l47.1-102.4c6.7-14.3,9.2-22.3,9.8-30.6c0.7-10.1-2.3-19.4-8.6-26   c-4.5-4.8-12.8-10.6-26.6-10.6c-3.7,0-7.7,0.4-12.2,1.2l-63,11.7l-108.9,20.2l-11.2,25.1c-1.3-2.3-2.9-4.5-4.8-6.5   c-6.2-6.5-14.9-9.9-25-9.9c-3.9,0-8.2,0.5-13.9,1.5l-87.6,16.2L18,295.4l14.8,2.6c0,1.7,0,3.3,0,4.7l2.3,182.9   c0.2,13.6,0.7,49.8,36.3,49.8c3.8,0,7.8-0.4,13.1-1.4l70.4-13l7.3-16.7c6.3,6.4,15,9.7,25,9.7c3.6,0,7.5-0.4,12.2-1.3l69.8-12.9   l43.5-94.5c1.1,7.2,5.1,11,7.8,12.8c2.9,1.9,6.5,2.8,10.6,2.8c1.9,0,3.9-0.2,6.1-0.6l94.9-17l0-0.1c0.9-0.1,1.7-0.2,2.6-0.4   l8.2-1.5l93.8-16.8l0-0.1c0.9-0.1,1.8-0.2,2.8-0.4l48.4-8.7l-3.1-12.4C584.7,362.9,584.7,362.7,584.7,362.6z M260.8,488.9   l-63.5,11.8c-3.9,0.7-7.1,1.1-10,1.1c-7.1,0-12.7-2.2-16.8-6.6c-5.5-5.9-6.8-14.2-6.5-25.4l-17.6,40.3l-64,11.9   c-4.5,0.8-7.9,1.2-10.9,1.2c-23.5,0-23.9-22.7-24.1-37.7L45,302.5c0-4.1,0-10.8-0.3-14.8l-11.6-2l8-31l80-14.8   c4.9-0.9,8.5-1.3,11.6-1.3c6.8,0,12.3,2.1,16.2,6.2c6.9,7.2,7,18.4,6.5,31.3l-0.5,14.2l27.4-61.7l88.4-16.4l1.1,60.6l11.9-26.8   c0.8-1.8,1.4-3.5,2-4.9l-6.1-1.2l3.2-12.6l4.7-18.2l60.5-11.2c3.7-0.7,7-1,10-1c7.6,0,13.5,2.3,17.7,6.7c2.8,2.9,5.9,8.3,5.3,16.9   c-0.5,6.6-2.7,13.5-8.7,26.3L260.8,488.9z M550.7,375.8l-12.4,2.2c-1.3,0.2-2.6,0.4-3.8,0.4c-2.3,0-4.3-0.4-6-1.3l0.6,2.6   l-62.5,11.2l-19.1,3.4l0-0.1c-0.5,0.1-1,0.2-1.5,0.3l-12.5,2.2c-1.5,0.3-2.8,0.4-4.1,0.4c-2.1,0-4-0.4-5.7-1.1l0.6,2.4l-25,4.5l0,0   l-29.2,5.2l0,0l-34.1,6.1c-1.8,0.3-3.5,0.5-5,0.5c-2.9,0-5.3-0.6-7.3-1.9c-2.6-1.7-5.6-5.2-5.2-12.6c0.1-1.7,0.3-3.6,0.8-5.7   l1.3-6.6l11.5-25c2.7-1.9,5.8-3.2,9.5-3.9l21-3.8c1.8-0.3,3.4-0.5,4.8-0.5c3,0,5.5,0.7,7.5,2c0.4,0.3,0.8,0.6,1.2,1l1.1-5.3   c0.2-1.2,0.5-2.3,0.7-3.5c0.2-0.9,0.3-1.8,0.3-2.6c0-0.6,0-1.2-0.2-1.8l-1.7-6.4l25-4.5v0l3.8-0.7l4.6-0.8v0l25-4.5l-3,15.1   l33.1-5.9c0.9-0.2,1.9-0.3,2.8-0.3c3.3,0,6.1,1.2,8.3,3.3l-1.4-4.8l42.3-7.6c1.2-0.2,2.3-0.3,3.4-0.3c4.5,0,7.2,1.9,8.7,3.4   c0.4,0.4,0.8,1,1.1,1.5c0.6-0.9,1.2-1.8,1.9-2.6c3-3.6,6.7-5.9,10.8-6.6l13.7-2.4c0.5-0.1,1-0.2,1.5-0.2c0,0,0.6-2.6,0.8-3.8   c0.2-0.9,0.3-1.7,0.3-2.6c0-0.6,0-1.2-0.2-1.8l-1.7-6.4l33.4-6l-11.3,56.3c-0.5,2.5-0.8,4-0.9,4.6c-0.1,0.4-0.1,0.9-0.1,1.4   c0,0.9,0,1.5,0.1,1.9l1.6,6.3L550.7,375.8z" />
	<path class="st0" d="M294.8,250.9c3.2-7.7,4.9-12.1,5.1-14.8c0.2-3-1.3-5-5.3-5.8l2.7-10.6l52.9-9.8c13.3-2.5,19.2,0.6,18.5,9.7   c-0.3,4.6-2,10.1-7.6,22L252.3,478L195,488.6c-16.7,3.1-20.1-1.5-18.6-23.9l4.8-65l-43.5,99.5l-57.6,10.7   c-17.4,3.2-20.2-0.4-20.5-24.7l-2.3-182.8c-0.1-23.6-0.6-25-9-26.4l2.7-10.6l72.3-13.4c18.1-3.3,20.9-0.1,19.9,23.7l-3,77.8   l50.6-113.9l67.9-12.6l1.8,101.6L294.8,250.9z" />
	<g id="elland">
		<path class="st0" d="M370.7,385l-28.2,5l-0.7,3.6c-0.2,0.9-0.3,1.7-0.3,2.3c-0.1,1.3,0.2,2.1,0.9,2.4c0.7,0.3,1.8,0.3,3.4,0    l15.2-2.7c2-0.4,3.6-0.8,4.6-1.2c1-0.5,2.1-1.2,3.2-2.1l-3.3,10.4l-30.5,5.4c-3.7,0.7-6.3,0.5-8-0.5c-1.8-1.1-2.6-3.5-2.4-7.1    c0.1-1.4,0.3-3,0.7-4.8l2.8-13.9c1-5.2,2.7-9.1,5-11.7c2.3-2.6,5.5-4.3,9.6-5l21-3.8c3.7-0.7,6.3-0.5,7.8,0.6    c1.6,1,2.3,3.3,2.1,6.7c-0.1,1.4-0.3,3.1-0.7,5L370.7,385z M355.9,379.7l0.9-4.6c0.2-0.8,0.3-1.5,0.3-2.2c0-0.8-0.1-1.4-0.4-1.8    c-0.3-0.4-0.8-0.5-1.7-0.3l-6.6,1.2c-0.9,0.2-1.6,0.6-2.1,1.3c-0.5,0.7-0.9,1.8-1.2,3.3l-1.1,5.2L355.9,379.7z" />
		<path class="st0" d="M375.7,391.4l7.5-37.6c0.2-1.1,0.5-2.3,0.7-3.5c0.2-1.2,0.4-2.4,0.5-3.5c0.1-1.2-0.1-2.5-0.4-3.6l18.1-3.2    l-9.5,47.4c-0.4,1.6-0.6,2.9-0.8,3.9c-0.2,1-0.3,2-0.4,3.1c-0.1,1.2,0.1,2.5,0.4,3.6l-19.5,3.5c0.7-1.1,1.2-2.2,1.5-3.3    C374.6,396.2,375.2,393.9,375.7,391.4z" />
		<path class="st0" d="M400.8,386.9l7.5-37.6c0.2-1.1,0.5-2.3,0.7-3.5c0.2-1.2,0.4-2.4,0.5-3.5c0.1-1.2-0.1-2.5-0.4-3.6l18.1-3.2    l-9.5,47.4c-0.4,1.6-0.6,2.9-0.8,3.9c-0.2,1-0.3,2-0.4,3.1c-0.1,1.2,0.1,2.5,0.4,3.6l-19.5,3.5c0.7-1.1,1.2-2.2,1.5-3.3    C399.6,391.7,400.2,389.5,400.8,386.9z" />
		<path class="st0" d="M433.3,349l31.1-5.6l1.7-0.3c2.5-0.4,4.4,0,5.8,1.5c1.4,1.4,2,3.6,1.9,6.4c0,0.8-0.1,1.7-0.3,2.7l-4,20    c-0.4,2.5-0.7,5-1.1,7.5c-0.1,1.1,0,2.1,0.3,3.1l-16.4,2.9c-0.1-0.5-0.2-1-0.2-1.5c0-0.5,0-1.1,0-1.8l0.1-1.1    c-0.7,1.7-1.7,3-2.9,3.9c-1.2,0.9-2.6,1.5-4.1,1.8l-12.5,2.2c-3,0.5-5.2,0.3-6.7-0.6c-1.4-0.9-2.1-2.9-1.9-5.8c0-0.5,0-1,0.1-1.3    c0-0.4,0.1-1.1,0.4-2.3l1.5-7.4c0.7-3.2,2-5.8,3.9-7.8c1.9-2,4.2-3.2,6.8-3.7l16-2.9l1.1-0.2c1-0.2,1.7-0.5,2.3-0.9    c0.5-0.5,0.9-1.3,1.2-2.4c0.2-1.2,0.1-1.9-0.5-2.2c-0.6-0.3-1.4-0.3-2.6-0.1l-16.2,2.9c-1.6,0.3-2.9,0.6-4,1.1    c-1.1,0.4-2.3,1.2-3.6,2.2L433.3,349z M454.9,366.3l-8,1.4c-1.6,0.3-2.7,0.9-3.4,1.8c-0.7,0.9-1.3,2.4-1.6,4.5l-0.4,1.9    c-0.2,0.8-0.3,1.6-0.3,2.2c-0.1,1.1,0.2,1.9,0.6,2.3c0.5,0.5,1.3,0.6,2.5,0.4l4.1-0.7c1.6-0.3,2.7-0.9,3.4-1.8    c0.7-0.9,1.3-2.4,1.6-4.5L454.9,366.3z" />
		<path class="st0" d="M477.2,373.2l4.5-22.4c0.5-2.6,0.8-4.2,0.9-4.8c0.1-0.6,0.2-1.3,0.2-2.1c0.1-1.5,0-2.7-0.3-3.7l16.4-2.9    l-0.2,4.2c1.1-1.8,2.1-3,3.1-3.8c1-0.8,2.3-1.3,3.9-1.6l12.5-2.2c3-0.5,5.2-0.1,6.6,1.3c1.4,1.4,2,3.7,1.8,6.9    c-0.1,1.1-0.2,2.4-0.5,4.1l-3.6,18c-0.5,2.6-0.8,4.2-0.9,4.8c-0.1,0.6-0.2,1.3-0.2,2.1c-0.1,1.4,0,2.6,0.3,3.7l-19.6,3.5    c0.9-1.4,1.6-2.9,2.1-4.6c0.3-1,0.7-2.6,1.1-4.8l4.1-20.6c0.2-1.3,0.4-2.1,0.4-2.5c0-0.9-0.1-1.6-0.5-1.9    c-0.4-0.4-1.2-0.5-2.3-0.3l-5.1,0.9c-1.1,0.2-2,0.7-2.5,1.4c-0.6,0.7-1,1.9-1.3,3.3l-4,20c-0.5,2.6-0.8,4.2-0.9,4.8    c-0.1,0.6-0.2,1.3-0.2,2.1c-0.1,1.4,0,2.6,0.3,3.7l-19.5,3.5c0.7-1.1,1.2-2.3,1.5-3.4C476.1,377.9,476.7,375.7,477.2,373.2z" />
		<path class="st0" d="M583.1,307.6l-9.6,47.4c-0.5,2.6-0.8,4.2-0.9,4.8c-0.1,0.6-0.2,1.3-0.2,2.1c-0.1,1.4,0,2.6,0.3,3.7l-15.8,2.8    l0.1-3.8c-1,1.6-2.2,2.9-3.7,3.8c-1.1,0.7-2.5,1.1-4.2,1.4l-11.9,2.1c-3.1,0.5-5.3,0.3-6.9-0.9c-1.5-1.1-2.2-3.3-2-6.5    c0-0.5,0.1-0.8,0.1-1.2c0-0.3,0.2-1,0.3-2l3.8-18.7c0.7-3.5,2.1-6.5,4.2-9c2.1-2.5,4.5-4,7.2-4.5l13.7-2.4    c1.3-0.2,2.4-0.1,3.2,0.3c0.8,0.5,1.3,1.3,1.7,2.6l1.7-8.3c0.2-1.1,0.5-2.3,0.7-3.4c0.2-1.2,0.4-2.3,0.4-3.5    c0.1-1.2-0.1-2.5-0.4-3.6L583.1,307.6z M548.8,362.1l3.8-0.7c1.5-0.3,2.6-0.9,3.2-1.9c0.7-1,1.2-2.5,1.6-4.5l3.2-16l0.3-1.1    c0.1-0.3,0.1-0.7,0.1-1.1c0.1-1.9-0.8-2.7-2.8-2.4l-4.6,0.8c-2.4,0.4-3.9,2.3-4.5,5.5l-3.5,17.3c-0.1,0.7-0.2,1.2-0.2,1.5    c-0.1,1.1,0.2,1.8,0.8,2.2C546.7,362.2,547.6,362.3,548.8,362.1z" />
	</g>
</g>
</svg>